%
M48
M72
T01C0.0236
T02C0.0240
T03C0.0354
T04C0.0374
T05C0.0400
%
T01
X4500Y5500
X7750Y8250
X9750Y6500
X10250Y8250
X6000Y10750
X3500Y10000
X10250Y16000
X12250Y13750
X18250Y12500
X21250Y10250
X19000Y8500
X19750Y8250
X17750Y6250
X19500Y5500
X20750Y3500
X10500Y2750
X3500Y17000
T02
X6500Y13000
X8500Y13000
T03
X750Y2600
X1850Y3050
X1800Y5050
X700Y5400
T04
X18500Y4500
X19500Y4500
X19500Y3500
X18500Y3500
X18500Y2500
X19500Y2500
T05
X20500Y7250
X20500Y8250
X20500Y9250
X20500Y10250
X20500Y11250
X20500Y12250
M30
