G75*
%MOIN*%
%OFA0B0*%
%FSLAX24Y24*%
%IPPOS*%
%LPD*%
%AMOC8*
5,1,8,0,0,1.08239X$1,22.5*
%
%ADD10OC8,0.0610*%
%ADD11C,0.0400*%
%ADD12C,0.0740*%
%ADD13R,0.0396X0.0396*%
%ADD14C,0.0160*%
%ADD15C,0.0396*%
%ADD16OC8,0.0396*%
%ADD17C,0.0531*%
D10*
X018500Y002500D03*
X019500Y002500D03*
X019500Y003500D03*
X018500Y003500D03*
X018500Y004500D03*
X019500Y004500D03*
D11*
X008500Y012800D02*
X008500Y013200D01*
X006500Y013200D02*
X006500Y012800D01*
D12*
X020500Y012250D03*
X020500Y011250D03*
X020500Y010250D03*
X020500Y009250D03*
X020500Y008250D03*
X020500Y007250D03*
D13*
X019750Y008250D03*
X019000Y008500D03*
X021250Y010250D03*
X018250Y012500D03*
X010250Y016000D03*
X003500Y017000D03*
X007750Y008250D03*
X009750Y006500D03*
X010250Y008250D03*
X004500Y005500D03*
X017750Y006250D03*
X019500Y005500D03*
X020750Y003500D03*
D14*
X000320Y000320D02*
X000320Y017676D01*
X024050Y017676D01*
X024050Y000320D01*
X000320Y000320D01*
X000320Y000476D02*
X024050Y000476D01*
X024050Y000634D02*
X000320Y000634D01*
X000320Y000793D02*
X024050Y000793D01*
X024050Y000951D02*
X000320Y000951D01*
X000320Y001110D02*
X024050Y001110D01*
X024050Y001268D02*
X000320Y001268D01*
X000320Y001427D02*
X024050Y001427D01*
X024050Y001585D02*
X000320Y001585D01*
X000320Y001744D02*
X024050Y001744D01*
X024050Y001902D02*
X018786Y001902D01*
X018759Y001875D02*
X019099Y002215D01*
X019299Y002015D01*
X019486Y002015D01*
X019486Y002486D01*
X019514Y002486D01*
X019514Y002514D01*
X019985Y002514D01*
X019985Y002701D01*
X019785Y002901D01*
X020125Y003241D01*
X020125Y003759D01*
X019884Y004000D01*
X020125Y004241D01*
X020125Y004271D01*
X020251Y003809D01*
X020232Y003762D01*
X020232Y003238D01*
X020281Y003121D01*
X020371Y003031D01*
X020488Y002982D01*
X021012Y002982D01*
X021129Y003031D01*
X021219Y003121D01*
X021268Y003238D01*
X021268Y003762D01*
X021219Y003879D01*
X021129Y003969D01*
X021025Y004013D01*
X020456Y006100D01*
X020486Y006100D01*
X020551Y006095D01*
X020565Y006100D01*
X021330Y006100D01*
X021477Y006161D01*
X021589Y006273D01*
X021650Y006420D01*
X021650Y009801D01*
X021719Y009871D01*
X021768Y009988D01*
X021768Y010512D01*
X021719Y010629D01*
X021629Y010719D01*
X021512Y010768D01*
X020994Y010768D01*
X021085Y010859D01*
X021190Y011113D01*
X021190Y011387D01*
X021085Y011641D01*
X020976Y011750D01*
X021085Y011859D01*
X021190Y012113D01*
X021190Y012387D01*
X021085Y012641D01*
X020891Y012835D01*
X020637Y012940D01*
X020363Y012940D01*
X020109Y012835D01*
X019915Y012641D01*
X019810Y012387D01*
X019810Y012113D01*
X019915Y011859D01*
X020024Y011750D01*
X019915Y011641D01*
X019810Y011387D01*
X019810Y011113D01*
X019915Y010859D01*
X020024Y010750D01*
X019915Y010641D01*
X019810Y010387D01*
X019810Y010113D01*
X019915Y009859D01*
X020024Y009750D01*
X019915Y009641D01*
X019810Y009387D01*
X019810Y009282D01*
X018767Y012236D01*
X018768Y012238D01*
X018768Y012762D01*
X018719Y012879D01*
X018629Y012969D01*
X018512Y013018D01*
X017988Y013018D01*
X017871Y012969D01*
X017781Y012879D01*
X017732Y012762D01*
X017732Y012238D01*
X017781Y012121D01*
X017871Y012031D01*
X017988Y011982D01*
X018009Y011982D01*
X019055Y009018D01*
X018738Y009018D01*
X018621Y008969D01*
X018538Y008887D01*
X010686Y008663D01*
X010629Y008719D01*
X010512Y008768D01*
X009988Y008768D01*
X009871Y008719D01*
X009781Y008629D01*
X009732Y008512D01*
X009732Y007988D01*
X009781Y007871D01*
X009871Y007781D01*
X009988Y007732D01*
X010512Y007732D01*
X010629Y007781D01*
X010712Y007863D01*
X018564Y008087D01*
X018621Y008031D01*
X018738Y007982D01*
X019235Y007982D01*
X019281Y007871D01*
X019371Y007781D01*
X019488Y007732D01*
X020012Y007732D01*
X020033Y007741D01*
X020109Y007665D01*
X020129Y007657D01*
X020080Y007608D01*
X008150Y007608D01*
X008150Y007450D02*
X019987Y007450D01*
X019990Y007461D02*
X019964Y007379D01*
X019950Y007293D01*
X019950Y007270D01*
X020480Y007270D01*
X020480Y007230D01*
X019950Y007230D01*
X019950Y007222D01*
X019728Y007333D01*
X019709Y007350D01*
X019657Y007369D01*
X019608Y007393D01*
X019583Y007395D01*
X019559Y007404D01*
X019504Y007401D01*
X019449Y007405D01*
X019425Y007397D01*
X010176Y006922D01*
X010129Y006969D01*
X010012Y007018D01*
X009488Y007018D01*
X009371Y006969D01*
X009281Y006879D01*
X009232Y006762D01*
X009232Y006238D01*
X009281Y006121D01*
X009371Y006031D01*
X009488Y005982D01*
X010012Y005982D01*
X010129Y006031D01*
X010219Y006121D01*
X010221Y006124D01*
X017232Y006483D01*
X017232Y005988D01*
X017268Y005900D01*
X008150Y005900D01*
X008150Y007801D01*
X008219Y007871D01*
X008268Y007988D01*
X008268Y008512D01*
X008219Y008629D01*
X008129Y008719D01*
X008012Y008768D01*
X007488Y008768D01*
X007371Y008719D01*
X007281Y008629D01*
X007232Y008512D01*
X007232Y007988D01*
X007281Y007871D01*
X007350Y007801D01*
X007350Y005420D01*
X007411Y005273D01*
X007523Y005161D01*
X007670Y005100D01*
X018216Y005100D01*
X017875Y004759D01*
X017875Y004241D01*
X018116Y004000D01*
X017875Y003759D01*
X017875Y003241D01*
X018116Y003000D01*
X017875Y002759D01*
X017875Y002241D01*
X018241Y001875D01*
X018759Y001875D01*
X018945Y002061D02*
X019253Y002061D01*
X019486Y002061D02*
X019514Y002061D01*
X019514Y002015D02*
X019701Y002015D01*
X019985Y002299D01*
X019985Y002486D01*
X019514Y002486D01*
X019514Y002015D01*
X019514Y002219D02*
X019486Y002219D01*
X019486Y002378D02*
X019514Y002378D01*
X019905Y002219D02*
X024050Y002219D01*
X024050Y002061D02*
X019747Y002061D01*
X019985Y002378D02*
X024050Y002378D01*
X024050Y002536D02*
X019985Y002536D01*
X019985Y002695D02*
X024050Y002695D01*
X024050Y002853D02*
X019833Y002853D01*
X019896Y003012D02*
X020417Y003012D01*
X020260Y003170D02*
X020054Y003170D01*
X020125Y003329D02*
X020232Y003329D01*
X020232Y003487D02*
X020125Y003487D01*
X020125Y003646D02*
X020232Y003646D01*
X020249Y003804D02*
X020080Y003804D01*
X020209Y003963D02*
X019922Y003963D01*
X020005Y004121D02*
X020166Y004121D01*
X020909Y004438D02*
X024050Y004438D01*
X024050Y004280D02*
X020952Y004280D01*
X020995Y004121D02*
X024050Y004121D01*
X024050Y003963D02*
X021136Y003963D01*
X021251Y003804D02*
X024050Y003804D01*
X024050Y003646D02*
X021268Y003646D01*
X021268Y003487D02*
X024050Y003487D01*
X024050Y003329D02*
X021268Y003329D01*
X021240Y003170D02*
X024050Y003170D01*
X024050Y003012D02*
X021083Y003012D01*
X020750Y003500D02*
X020000Y006250D01*
X017750Y006250D01*
X017232Y006182D02*
X011350Y006182D01*
X011183Y006974D02*
X010118Y006974D01*
X009750Y006500D02*
X019500Y007000D01*
X020500Y006500D01*
X021250Y006500D01*
X021250Y010250D01*
X021768Y010303D02*
X024050Y010303D01*
X024050Y010461D02*
X021768Y010461D01*
X021723Y010620D02*
X024050Y010620D01*
X024050Y010778D02*
X021004Y010778D01*
X021117Y010937D02*
X024050Y010937D01*
X024050Y011095D02*
X021183Y011095D01*
X021190Y011254D02*
X024050Y011254D01*
X024050Y011412D02*
X021180Y011412D01*
X021114Y011571D02*
X024050Y011571D01*
X024050Y011729D02*
X020997Y011729D01*
X021097Y011888D02*
X024050Y011888D01*
X024050Y012046D02*
X021162Y012046D01*
X021190Y012205D02*
X024050Y012205D01*
X024050Y012363D02*
X021190Y012363D01*
X021134Y012522D02*
X024050Y012522D01*
X024050Y012680D02*
X021046Y012680D01*
X020882Y012839D02*
X024050Y012839D01*
X024050Y012997D02*
X018563Y012997D01*
X018736Y012839D02*
X020118Y012839D01*
X019954Y012680D02*
X018768Y012680D01*
X018768Y012522D02*
X019866Y012522D01*
X019810Y012363D02*
X018768Y012363D01*
X018778Y012205D02*
X019810Y012205D01*
X019838Y012046D02*
X018834Y012046D01*
X018890Y011888D02*
X019903Y011888D01*
X020003Y011729D02*
X018946Y011729D01*
X019002Y011571D02*
X019886Y011571D01*
X019820Y011412D02*
X019058Y011412D01*
X019114Y011254D02*
X019810Y011254D01*
X019817Y011095D02*
X019170Y011095D01*
X019226Y010937D02*
X019883Y010937D01*
X019996Y010778D02*
X019282Y010778D01*
X019338Y010620D02*
X019906Y010620D01*
X019841Y010461D02*
X019394Y010461D01*
X019450Y010303D02*
X019810Y010303D01*
X019810Y010144D02*
X019506Y010144D01*
X019562Y009986D02*
X019863Y009986D01*
X019947Y009827D02*
X019618Y009827D01*
X019674Y009669D02*
X019943Y009669D01*
X019861Y009510D02*
X019729Y009510D01*
X019785Y009352D02*
X019810Y009352D01*
X019049Y009035D02*
X004400Y009035D01*
X004400Y009193D02*
X018993Y009193D01*
X018937Y009352D02*
X004400Y009352D01*
X004400Y009510D02*
X018881Y009510D01*
X018825Y009669D02*
X004400Y009669D01*
X004400Y009827D02*
X018769Y009827D01*
X018713Y009986D02*
X004400Y009986D01*
X004400Y010144D02*
X018657Y010144D01*
X018601Y010303D02*
X006274Y010303D01*
X006293Y010311D02*
X006103Y010232D01*
X005897Y010232D01*
X005707Y010311D01*
X005561Y010457D01*
X005482Y010647D01*
X005482Y010853D01*
X005561Y011043D01*
X005707Y011189D01*
X005897Y011268D01*
X006103Y011268D01*
X006293Y011189D01*
X006333Y011150D01*
X007100Y011150D01*
X007100Y013830D01*
X007161Y013977D01*
X007273Y014089D01*
X007420Y014150D01*
X011917Y014150D01*
X011957Y014189D01*
X012147Y014268D01*
X012353Y014268D01*
X012543Y014189D01*
X012689Y014043D01*
X012768Y013853D01*
X012768Y013647D01*
X012689Y013457D01*
X012543Y013311D01*
X012353Y013232D01*
X012147Y013232D01*
X011957Y013311D01*
X011917Y013350D01*
X009001Y013350D01*
X009020Y013303D01*
X009020Y012697D01*
X008941Y012505D01*
X008795Y012359D01*
X008603Y012280D01*
X008397Y012280D01*
X008205Y012359D01*
X008059Y012505D01*
X007980Y012697D01*
X007980Y013303D01*
X007999Y013350D01*
X007900Y013350D01*
X007900Y010670D01*
X007839Y010523D01*
X007727Y010411D01*
X007580Y010350D01*
X006333Y010350D01*
X006293Y010311D01*
X006000Y010750D02*
X007500Y010750D01*
X007500Y013750D01*
X012250Y013750D01*
X012729Y013948D02*
X024050Y013948D01*
X024050Y013790D02*
X012768Y013790D01*
X012762Y013631D02*
X024050Y013631D01*
X024050Y013473D02*
X012696Y013473D01*
X012547Y013314D02*
X024050Y013314D01*
X024050Y013156D02*
X009020Y013156D01*
X009016Y013314D02*
X011953Y013314D01*
X012626Y014107D02*
X024050Y014107D01*
X024050Y014265D02*
X012361Y014265D01*
X012139Y014265D02*
X004400Y014265D01*
X004400Y014107D02*
X007315Y014107D01*
X007149Y013948D02*
X004400Y013948D01*
X004400Y013790D02*
X007100Y013790D01*
X007100Y013631D02*
X006804Y013631D01*
X006795Y013641D02*
X006603Y013720D01*
X006397Y013720D01*
X006205Y013641D01*
X006059Y013495D01*
X005980Y013303D01*
X005980Y012697D01*
X006059Y012505D01*
X006205Y012359D01*
X006397Y012280D01*
X006603Y012280D01*
X006795Y012359D01*
X006941Y012505D01*
X007020Y012697D01*
X007020Y013303D01*
X006941Y013495D01*
X006795Y013641D01*
X006950Y013473D02*
X007100Y013473D01*
X007100Y013314D02*
X007016Y013314D01*
X007020Y013156D02*
X007100Y013156D01*
X007100Y012997D02*
X007020Y012997D01*
X007020Y012839D02*
X007100Y012839D01*
X007100Y012680D02*
X007013Y012680D01*
X006947Y012522D02*
X007100Y012522D01*
X007100Y012363D02*
X006798Y012363D01*
X007100Y012205D02*
X004400Y012205D01*
X004400Y012363D02*
X006202Y012363D01*
X006053Y012522D02*
X004400Y012522D01*
X004400Y012680D02*
X005987Y012680D01*
X005980Y012839D02*
X004400Y012839D01*
X004400Y012997D02*
X005980Y012997D01*
X005980Y013156D02*
X004400Y013156D01*
X004400Y013314D02*
X005984Y013314D01*
X006050Y013473D02*
X004400Y013473D01*
X004400Y013631D02*
X006196Y013631D01*
X007900Y013314D02*
X007984Y013314D01*
X007980Y013156D02*
X007900Y013156D01*
X007900Y012997D02*
X007980Y012997D01*
X007980Y012839D02*
X007900Y012839D01*
X007900Y012680D02*
X007987Y012680D01*
X008053Y012522D02*
X007900Y012522D01*
X007900Y012363D02*
X008202Y012363D01*
X007900Y012205D02*
X017746Y012205D01*
X017732Y012363D02*
X008798Y012363D01*
X008947Y012522D02*
X017732Y012522D01*
X017732Y012680D02*
X009013Y012680D01*
X009020Y012839D02*
X017764Y012839D01*
X017937Y012997D02*
X009020Y012997D01*
X007900Y012046D02*
X017855Y012046D01*
X018042Y011888D02*
X007900Y011888D01*
X007900Y011729D02*
X018098Y011729D01*
X018154Y011571D02*
X007900Y011571D01*
X007900Y011412D02*
X018210Y011412D01*
X018266Y011254D02*
X007900Y011254D01*
X007900Y011095D02*
X018322Y011095D01*
X018378Y010937D02*
X007900Y010937D01*
X007900Y010778D02*
X018434Y010778D01*
X018490Y010620D02*
X007879Y010620D01*
X007777Y010461D02*
X018545Y010461D01*
X018155Y008876D02*
X004400Y008876D01*
X004400Y008718D02*
X007369Y008718D01*
X007251Y008559D02*
X004400Y008559D01*
X004400Y008401D02*
X007232Y008401D01*
X007232Y008242D02*
X004400Y008242D01*
X004400Y008084D02*
X007232Y008084D01*
X007258Y007925D02*
X004400Y007925D01*
X004400Y007767D02*
X007350Y007767D01*
X007350Y007608D02*
X004400Y007608D01*
X004400Y007450D02*
X007350Y007450D01*
X007350Y007291D02*
X004400Y007291D01*
X004400Y007133D02*
X007350Y007133D01*
X007350Y006974D02*
X004400Y006974D01*
X004400Y006816D02*
X007350Y006816D01*
X007350Y006657D02*
X004400Y006657D01*
X004400Y006499D02*
X007350Y006499D01*
X007350Y006340D02*
X004400Y006340D01*
X004400Y006182D02*
X007350Y006182D01*
X007350Y006023D02*
X004400Y006023D01*
X004400Y006018D02*
X004400Y015600D01*
X009801Y015600D01*
X009871Y015531D01*
X009988Y015482D01*
X010512Y015482D01*
X010629Y015531D01*
X010719Y015621D01*
X010768Y015738D01*
X010768Y016262D01*
X010719Y016379D01*
X010629Y016469D01*
X010512Y016518D01*
X009988Y016518D01*
X009871Y016469D01*
X009801Y016400D01*
X003920Y016400D01*
X003900Y016392D01*
X003900Y016551D01*
X003969Y016621D01*
X004018Y016738D01*
X004018Y017262D01*
X003969Y017379D01*
X003879Y017469D01*
X003762Y017518D01*
X003238Y017518D01*
X003121Y017469D01*
X003031Y017379D01*
X002982Y017262D01*
X002982Y016738D01*
X003031Y016621D01*
X003100Y016551D01*
X003100Y010333D01*
X003061Y010293D01*
X002982Y010103D01*
X002982Y009897D01*
X003061Y009707D01*
X003207Y009561D01*
X003397Y009482D01*
X003600Y009482D01*
X003600Y005420D01*
X003661Y005273D01*
X003773Y005161D01*
X003920Y005100D01*
X004051Y005100D01*
X004121Y005031D01*
X004238Y004982D01*
X004762Y004982D01*
X004879Y005031D01*
X004969Y005121D01*
X005018Y005238D01*
X005018Y005762D01*
X004969Y005879D01*
X004879Y005969D01*
X004762Y006018D01*
X004400Y006018D01*
X004976Y005865D02*
X007350Y005865D01*
X007350Y005706D02*
X005018Y005706D01*
X005018Y005548D02*
X007350Y005548D01*
X007363Y005389D02*
X005018Y005389D01*
X005015Y005231D02*
X007454Y005231D01*
X007750Y005500D02*
X007750Y008250D01*
X008268Y008242D02*
X009732Y008242D01*
X009732Y008084D02*
X008268Y008084D01*
X008242Y007925D02*
X009758Y007925D01*
X009905Y007767D02*
X008150Y007767D01*
X008150Y007291D02*
X017365Y007291D01*
X017232Y006340D02*
X014440Y006340D01*
X014274Y007133D02*
X008150Y007133D01*
X008150Y006974D02*
X009382Y006974D01*
X009254Y006816D02*
X008150Y006816D01*
X008150Y006657D02*
X009232Y006657D01*
X009232Y006499D02*
X008150Y006499D01*
X008150Y006340D02*
X009232Y006340D01*
X009255Y006182D02*
X008150Y006182D01*
X008150Y006023D02*
X009389Y006023D01*
X010111Y006023D02*
X017232Y006023D01*
X018188Y005072D02*
X004921Y005072D01*
X004500Y005500D02*
X004000Y005500D01*
X004000Y016000D01*
X010250Y016000D01*
X010768Y016009D02*
X024050Y016009D01*
X024050Y016167D02*
X010768Y016167D01*
X010742Y016326D02*
X024050Y016326D01*
X024050Y016484D02*
X010594Y016484D01*
X010768Y015850D02*
X024050Y015850D01*
X024050Y015692D02*
X010749Y015692D01*
X010632Y015533D02*
X024050Y015533D01*
X024050Y015375D02*
X004400Y015375D01*
X004400Y015533D02*
X009868Y015533D01*
X009906Y016484D02*
X003900Y016484D01*
X003978Y016643D02*
X024050Y016643D01*
X024050Y016801D02*
X004018Y016801D01*
X004018Y016960D02*
X024050Y016960D01*
X024050Y017118D02*
X004018Y017118D01*
X004012Y017277D02*
X024050Y017277D01*
X024050Y017435D02*
X003914Y017435D01*
X003500Y017000D02*
X003500Y010000D01*
X003011Y009827D02*
X000320Y009827D01*
X000320Y009669D02*
X003099Y009669D01*
X003329Y009510D02*
X000320Y009510D01*
X000320Y009352D02*
X003600Y009352D01*
X003600Y009193D02*
X000320Y009193D01*
X000320Y009035D02*
X003600Y009035D01*
X003600Y008876D02*
X000320Y008876D01*
X000320Y008718D02*
X003600Y008718D01*
X003600Y008559D02*
X000320Y008559D01*
X000320Y008401D02*
X003600Y008401D01*
X003600Y008242D02*
X000320Y008242D01*
X000320Y008084D02*
X003600Y008084D01*
X003600Y007925D02*
X000320Y007925D01*
X000320Y007767D02*
X003600Y007767D01*
X003600Y007608D02*
X000320Y007608D01*
X000320Y007450D02*
X003600Y007450D01*
X003600Y007291D02*
X000320Y007291D01*
X000320Y007133D02*
X003600Y007133D01*
X003600Y006974D02*
X000320Y006974D01*
X000320Y006816D02*
X003600Y006816D01*
X003600Y006657D02*
X000320Y006657D01*
X000320Y006499D02*
X003600Y006499D01*
X003600Y006340D02*
X000320Y006340D01*
X000320Y006182D02*
X003600Y006182D01*
X003600Y006023D02*
X000320Y006023D01*
X000320Y005865D02*
X003600Y005865D01*
X003600Y005706D02*
X000320Y005706D01*
X000320Y005548D02*
X003600Y005548D01*
X003613Y005389D02*
X000320Y005389D01*
X000320Y005231D02*
X003704Y005231D01*
X004079Y005072D02*
X000320Y005072D01*
X000320Y004914D02*
X018029Y004914D01*
X017875Y004755D02*
X000320Y004755D01*
X000320Y004597D02*
X017875Y004597D01*
X017875Y004438D02*
X000320Y004438D01*
X000320Y004280D02*
X017875Y004280D01*
X017995Y004121D02*
X000320Y004121D01*
X000320Y003963D02*
X018078Y003963D01*
X017920Y003804D02*
X000320Y003804D01*
X000320Y003646D02*
X017875Y003646D01*
X017875Y003487D02*
X000320Y003487D01*
X000320Y003329D02*
X017875Y003329D01*
X017946Y003170D02*
X000320Y003170D01*
X000320Y003012D02*
X018104Y003012D01*
X017969Y002853D02*
X000320Y002853D01*
X000320Y002695D02*
X017875Y002695D01*
X017875Y002536D02*
X000320Y002536D01*
X000320Y002378D02*
X017875Y002378D01*
X017897Y002219D02*
X000320Y002219D01*
X000320Y002061D02*
X018055Y002061D01*
X018214Y001902D02*
X000320Y001902D01*
X007750Y005500D02*
X019500Y005500D01*
X020563Y005706D02*
X024050Y005706D01*
X024050Y005548D02*
X020606Y005548D01*
X020649Y005389D02*
X024050Y005389D01*
X024050Y005231D02*
X020693Y005231D01*
X020736Y005072D02*
X024050Y005072D01*
X024050Y004914D02*
X020779Y004914D01*
X020822Y004755D02*
X024050Y004755D01*
X024050Y004597D02*
X020866Y004597D01*
X020520Y005865D02*
X024050Y005865D01*
X024050Y006023D02*
X020477Y006023D01*
X021497Y006182D02*
X024050Y006182D01*
X024050Y006340D02*
X021617Y006340D01*
X021650Y006499D02*
X024050Y006499D01*
X024050Y006657D02*
X021650Y006657D01*
X021650Y006816D02*
X024050Y006816D01*
X024050Y006974D02*
X021650Y006974D01*
X021650Y007133D02*
X024050Y007133D01*
X024050Y007291D02*
X021650Y007291D01*
X021650Y007450D02*
X024050Y007450D01*
X024050Y007608D02*
X021650Y007608D01*
X021650Y007767D02*
X024050Y007767D01*
X024050Y007925D02*
X021650Y007925D01*
X021650Y008084D02*
X024050Y008084D01*
X024050Y008242D02*
X021650Y008242D01*
X021650Y008401D02*
X024050Y008401D01*
X024050Y008559D02*
X021650Y008559D01*
X021650Y008718D02*
X024050Y008718D01*
X024050Y008876D02*
X021650Y008876D01*
X021650Y009035D02*
X024050Y009035D01*
X024050Y009193D02*
X021650Y009193D01*
X021650Y009352D02*
X024050Y009352D01*
X024050Y009510D02*
X021650Y009510D01*
X021650Y009669D02*
X024050Y009669D01*
X024050Y009827D02*
X021676Y009827D01*
X021767Y009986D02*
X024050Y009986D01*
X024050Y010144D02*
X021768Y010144D01*
X019750Y008250D02*
X018250Y012500D01*
X019000Y008500D02*
X010250Y008250D01*
X009732Y008401D02*
X008268Y008401D01*
X008249Y008559D02*
X009751Y008559D01*
X009869Y008718D02*
X008131Y008718D01*
X010631Y008718D02*
X012607Y008718D01*
X012881Y007925D02*
X019258Y007925D01*
X019405Y007767D02*
X010595Y007767D01*
X007100Y011254D02*
X006138Y011254D01*
X005862Y011254D02*
X004400Y011254D01*
X004400Y011412D02*
X007100Y011412D01*
X007100Y011571D02*
X004400Y011571D01*
X004400Y011729D02*
X007100Y011729D01*
X007100Y011888D02*
X004400Y011888D01*
X004400Y012046D02*
X007100Y012046D01*
X005612Y011095D02*
X004400Y011095D01*
X004400Y010937D02*
X005516Y010937D01*
X005482Y010778D02*
X004400Y010778D01*
X004400Y010620D02*
X005493Y010620D01*
X005559Y010461D02*
X004400Y010461D01*
X004400Y010303D02*
X005726Y010303D01*
X003100Y010461D02*
X000320Y010461D01*
X000320Y010303D02*
X003070Y010303D01*
X002999Y010144D02*
X000320Y010144D01*
X000320Y009986D02*
X002982Y009986D01*
X003100Y010620D02*
X000320Y010620D01*
X000320Y010778D02*
X003100Y010778D01*
X003100Y010937D02*
X000320Y010937D01*
X000320Y011095D02*
X003100Y011095D01*
X003100Y011254D02*
X000320Y011254D01*
X000320Y011412D02*
X003100Y011412D01*
X003100Y011571D02*
X000320Y011571D01*
X000320Y011729D02*
X003100Y011729D01*
X003100Y011888D02*
X000320Y011888D01*
X000320Y012046D02*
X003100Y012046D01*
X003100Y012205D02*
X000320Y012205D01*
X000320Y012363D02*
X003100Y012363D01*
X003100Y012522D02*
X000320Y012522D01*
X000320Y012680D02*
X003100Y012680D01*
X003100Y012839D02*
X000320Y012839D01*
X000320Y012997D02*
X003100Y012997D01*
X003100Y013156D02*
X000320Y013156D01*
X000320Y013314D02*
X003100Y013314D01*
X003100Y013473D02*
X000320Y013473D01*
X000320Y013631D02*
X003100Y013631D01*
X003100Y013790D02*
X000320Y013790D01*
X000320Y013948D02*
X003100Y013948D01*
X003100Y014107D02*
X000320Y014107D01*
X000320Y014265D02*
X003100Y014265D01*
X003100Y014424D02*
X000320Y014424D01*
X000320Y014582D02*
X003100Y014582D01*
X003100Y014741D02*
X000320Y014741D01*
X000320Y014899D02*
X003100Y014899D01*
X003100Y015058D02*
X000320Y015058D01*
X000320Y015216D02*
X003100Y015216D01*
X003100Y015375D02*
X000320Y015375D01*
X000320Y015533D02*
X003100Y015533D01*
X003100Y015692D02*
X000320Y015692D01*
X000320Y015850D02*
X003100Y015850D01*
X003100Y016009D02*
X000320Y016009D01*
X000320Y016167D02*
X003100Y016167D01*
X003100Y016326D02*
X000320Y016326D01*
X000320Y016484D02*
X003100Y016484D01*
X003022Y016643D02*
X000320Y016643D01*
X000320Y016801D02*
X002982Y016801D01*
X002982Y016960D02*
X000320Y016960D01*
X000320Y017118D02*
X002982Y017118D01*
X002988Y017277D02*
X000320Y017277D01*
X000320Y017435D02*
X003086Y017435D01*
X004400Y015216D02*
X024050Y015216D01*
X024050Y015058D02*
X004400Y015058D01*
X004400Y014899D02*
X024050Y014899D01*
X024050Y014741D02*
X004400Y014741D01*
X004400Y014582D02*
X024050Y014582D01*
X024050Y014424D02*
X004400Y014424D01*
X000320Y017594D02*
X024050Y017594D01*
X018568Y008084D02*
X018429Y008084D01*
X019812Y007291D02*
X019950Y007291D01*
X019990Y007461D02*
X020030Y007538D01*
X020080Y007608D01*
D15*
X012250Y013750D03*
X006000Y010750D03*
X003500Y010000D03*
D16*
X010500Y002750D03*
D17*
X001850Y003050D03*
X000750Y002600D03*
X001800Y005050D03*
X000700Y005400D03*
M02*
